<svg width="22" height="16" viewBox="0 0 22 16" fill="none" xmlns="http://www.w3.org/2000/svg">
<path d="M19.25 11.5046C18.84 11.5046 18.5 11.1646 18.5 10.7546C18.5 10.3446 18.84 10.0046 19.25 10.0046C19.84 10.0046 19.97 9.91464 19.98 9.91464C20 9.85464 20 9.50464 20 9.25464V7.25464C20 7.00464 20 6.66464 19.96 6.57464C19.95 6.58464 19.8 6.50464 19.25 6.50464C18.84 6.50464 18.5 6.16464 18.5 5.75464C18.5 5.34464 18.84 5.00464 19.25 5.00464C21.33 5.00464 21.5 6.02464 21.5 7.25464V9.25464C21.5 10.4846 21.33 11.5046 19.25 11.5046Z" fill="#0020C3"/>
<path d="M5.12958 11.0047C5.06958 11.0047 5.00958 10.9947 4.94958 10.9847C4.54958 10.8847 4.29958 10.4747 4.39958 10.0747C4.69958 8.88474 4.69958 7.62474 4.39958 6.43474C4.29958 6.03474 4.53958 5.62474 4.94958 5.52474C5.34958 5.42474 5.74958 5.67474 5.84958 6.07474C6.20958 7.50474 6.20958 9.01474 5.84958 10.4347C5.76958 10.7747 5.45958 11.0047 5.12958 11.0047Z" fill="#0020C3"/>
<path d="M8.62959 11.0046C8.56959 11.0046 8.50959 10.9946 8.44959 10.9846C8.04959 10.8846 7.79958 10.4746 7.89958 10.0746C8.19958 8.88458 8.19958 7.62458 7.89958 6.43458C7.79958 6.03458 8.03959 5.62458 8.44959 5.52458C8.84959 5.42458 9.25958 5.66458 9.35958 6.07458C9.71958 7.50458 9.71958 9.01458 9.35958 10.4346C9.26958 10.7746 8.95959 11.0046 8.62959 11.0046Z" fill="#0020C3"/>
<path d="M12.1296 11.0046C12.0696 11.0046 12.0096 10.9946 11.9496 10.9846C11.5496 10.8846 11.2996 10.4746 11.3996 10.0746C11.6996 8.88458 11.6996 7.62458 11.3996 6.43458C11.2996 6.03458 11.5396 5.62458 11.9496 5.52458C12.3496 5.42458 12.7596 5.66458 12.8596 6.07458C13.2196 7.50458 13.2196 9.01458 12.8596 10.4346C12.7696 10.7746 12.4596 11.0046 12.1296 11.0046Z" fill="#0020C3"/>
<path d="M11.75 16.0046H5.75C1.34 16.0046 0 14.6646 0 10.2546V6.25464C0 1.84464 1.34 0.504639 5.75 0.504639H11.75C16.16 0.504639 17.5 1.84464 17.5 6.25464V10.2546C17.5 14.6646 16.16 16.0046 11.75 16.0046ZM5.75 2.00464C2.18 2.00464 1.5 2.68464 1.5 6.25464V10.2546C1.5 13.8246 2.18 14.5046 5.75 14.5046H11.75C15.32 14.5046 16 13.8246 16 10.2546V6.25464C16 2.68464 15.32 2.00464 11.75 2.00464H5.75Z" fill="#0020C3"/>
</svg>
