<svg width="347" height="31" viewBox="0 0 347 31" fill="none" xmlns="http://www.w3.org/2000/svg">
<line x1="1" y1="30.5" x2="346" y2="30.5" stroke="#000D50" stroke-opacity="0.4"/>
<line y1="-0.5" x2="43.3746" y2="-0.5" transform="matrix(0.722234 0.691649 -0.722234 0.691649 1 1)" stroke="#000D50" stroke-opacity="0.4"/>
<line y1="-0.5" x2="43.3746" y2="-0.5" transform="matrix(-0.722234 0.691649 0.722234 0.691649 32.3271 1)" stroke="#000D50" stroke-opacity="0.4"/>
<line y1="-0.5" x2="43.3746" y2="-0.5" transform="matrix(0.722234 0.691649 -0.722234 0.691649 32.3271 1)" stroke="#000D50" stroke-opacity="0.4"/>
<line y1="-0.5" x2="43.3746" y2="-0.5" transform="matrix(-0.722234 0.691649 0.722234 0.691649 63.6523 1)" stroke="#000D50" stroke-opacity="0.4"/>
<line y1="-0.5" x2="43.3746" y2="-0.5" transform="matrix(0.722234 0.691649 -0.722234 0.691649 63.6523 1)" stroke="#000D50" stroke-opacity="0.4"/>
<line y1="-0.5" x2="43.3746" y2="-0.5" transform="matrix(-0.722234 0.691649 0.722234 0.691649 94.9795 1)" stroke="#000D50" stroke-opacity="0.4"/>
<line y1="-0.5" x2="43.3746" y2="-0.5" transform="matrix(0.722234 0.691649 -0.722234 0.691649 94.9795 1)" stroke="#000D50" stroke-opacity="0.4"/>
<line y1="-0.5" x2="43.3746" y2="-0.5" transform="matrix(-0.722234 0.691649 0.722234 0.691649 126.307 1)" stroke="#000D50" stroke-opacity="0.4"/>
<line y1="-0.5" x2="43.3746" y2="-0.5" transform="matrix(0.722234 0.691649 -0.722234 0.691649 126.307 1)" stroke="#000D50" stroke-opacity="0.4"/>
<line y1="-0.5" x2="43.3746" y2="-0.5" transform="matrix(-0.722234 0.691649 0.722234 0.691649 157.634 1)" stroke="#000D50" stroke-opacity="0.4"/>
<line y1="-0.5" x2="43.3746" y2="-0.5" transform="matrix(0.722234 0.691649 -0.722234 0.691649 157.633 1)" stroke="#000D50" stroke-opacity="0.4"/>
<line y1="-0.5" x2="43.3746" y2="-0.5" transform="matrix(-0.722234 0.691649 0.722234 0.691649 188.959 1)" stroke="#000D50" stroke-opacity="0.4"/>
<line y1="-0.5" x2="43.3746" y2="-0.5" transform="matrix(0.722234 0.691649 -0.722234 0.691649 188.96 1)" stroke="#000D50" stroke-opacity="0.4"/>
<line y1="-0.5" x2="43.3746" y2="-0.5" transform="matrix(-0.722234 0.691649 0.722234 0.691649 220.286 1)" stroke="#000D50" stroke-opacity="0.4"/>
<line y1="-0.5" x2="43.3746" y2="-0.5" transform="matrix(0.722234 0.691649 -0.722234 0.691649 220.286 1)" stroke="#000D50" stroke-opacity="0.4"/>
<line y1="-0.5" x2="43.3746" y2="-0.5" transform="matrix(-0.722234 0.691649 0.722234 0.691649 251.613 1)" stroke="#000D50" stroke-opacity="0.4"/>
<line y1="-0.5" x2="43.3746" y2="-0.5" transform="matrix(0.722234 0.691649 -0.722234 0.691649 251.612 1)" stroke="#000D50" stroke-opacity="0.4"/>
<line y1="-0.5" x2="43.3746" y2="-0.5" transform="matrix(-0.722234 0.691649 0.722234 0.691649 282.939 1)" stroke="#000D50" stroke-opacity="0.4"/>
<line y1="-0.5" x2="43.3746" y2="-0.5" transform="matrix(0.722234 0.691649 -0.722234 0.691649 282.938 1)" stroke="#000D50" stroke-opacity="0.4"/>
<line y1="-0.5" x2="43.3746" y2="-0.5" transform="matrix(-0.722234 0.691649 0.722234 0.691649 314.266 1)" stroke="#000D50" stroke-opacity="0.4"/>
<line y1="-0.5" x2="43.3746" y2="-0.5" transform="matrix(0.722234 0.691649 -0.722234 0.691649 314.266 1)" stroke="#000D50" stroke-opacity="0.4"/>
<line y1="-0.5" x2="43.3746" y2="-0.5" transform="matrix(-0.722234 0.691649 0.722234 0.691649 345.593 1)" stroke="#000D50" stroke-opacity="0.4"/>
<circle cx="16.5" cy="15.5" r="2.5" fill="#959AB5"/>
<circle cx="48.5" cy="15.5" r="2.5" fill="#959AB5"/>
<circle cx="79.5" cy="15.5" r="2.5" fill="#959AB5"/>
<circle cx="111.5" cy="15.5" r="2.5" fill="#959AB5"/>
<circle cx="142.5" cy="15.5" r="2.5" fill="#959AB5"/>
<circle cx="174.5" cy="15.5" r="2.5" fill="#959AB5"/>
<circle cx="204.5" cy="15.5" r="2.5" fill="#959AB5"/>
<circle cx="236.5" cy="15.5" r="2.5" fill="#959AB5"/>
<circle cx="267.5" cy="15.5" r="2.5" fill="#959AB5"/>
<circle cx="298.5" cy="15.5" r="2.5" fill="#959AB5"/>
<circle cx="330.5" cy="15.5" r="2.5" fill="#959AB5"/>
<line x1="1" y1="0.5" x2="346" y2="0.5" stroke="#000D50" stroke-opacity="0.4"/>
</svg>
