<svg width="789" height="36" viewBox="0 0 789 36" fill="none" xmlns="http://www.w3.org/2000/svg">
<line x1="1" y1="35.5" x2="789" y2="35.5" stroke="#000D50" stroke-opacity="0.4"/>
<line y1="-0.5" x2="50.0539" y2="-0.5" transform="matrix(0.714881 0.699246 -0.714881 0.699246 1 1)" stroke="#000D50" stroke-opacity="0.4"/>
<line y1="-0.5" x2="50.0539" y2="-0.5" transform="matrix(-0.714881 0.699246 0.714881 0.699246 36.7827 1)" stroke="#000D50" stroke-opacity="0.4"/>
<line y1="-0.5" x2="50.0539" y2="-0.5" transform="matrix(0.714881 0.699246 -0.714881 0.699246 36.7827 1)" stroke="#000D50" stroke-opacity="0.4"/>
<line y1="-0.5" x2="50.0539" y2="-0.5" transform="matrix(-0.714881 0.699246 0.714881 0.699246 72.5654 1)" stroke="#000D50" stroke-opacity="0.4"/>
<line y1="-0.5" x2="50.0539" y2="-0.5" transform="matrix(0.714881 0.699246 -0.714881 0.699246 72.5649 1)" stroke="#000D50" stroke-opacity="0.4"/>
<line y1="-0.5" x2="50.0539" y2="-0.5" transform="matrix(-0.714881 0.699246 0.714881 0.699246 108.348 1)" stroke="#000D50" stroke-opacity="0.4"/>
<line y1="-0.5" x2="50.0539" y2="-0.5" transform="matrix(0.714881 0.699246 -0.714881 0.699246 108.348 1)" stroke="#000D50" stroke-opacity="0.4"/>
<line y1="-0.5" x2="50.0539" y2="-0.5" transform="matrix(-0.714881 0.699246 0.714881 0.699246 144.13 1)" stroke="#000D50" stroke-opacity="0.4"/>
<line y1="-0.5" x2="50.0539" y2="-0.5" transform="matrix(0.714881 0.699246 -0.714881 0.699246 144.13 1)" stroke="#000D50" stroke-opacity="0.4"/>
<line y1="-0.5" x2="50.0539" y2="-0.5" transform="matrix(-0.714881 0.699246 0.714881 0.699246 179.913 1)" stroke="#000D50" stroke-opacity="0.4"/>
<line y1="-0.5" x2="50.0539" y2="-0.5" transform="matrix(0.714881 0.699246 -0.714881 0.699246 179.913 1)" stroke="#000D50" stroke-opacity="0.4"/>
<line y1="-0.5" x2="50.0539" y2="-0.5" transform="matrix(-0.714881 0.699246 0.714881 0.699246 215.696 1)" stroke="#000D50" stroke-opacity="0.4"/>
<line y1="-0.5" x2="50.0539" y2="-0.5" transform="matrix(0.714881 0.699246 -0.714881 0.699246 215.695 1)" stroke="#000D50" stroke-opacity="0.4"/>
<line y1="-0.5" x2="50.0539" y2="-0.5" transform="matrix(-0.714881 0.699246 0.714881 0.699246 251.478 1)" stroke="#000D50" stroke-opacity="0.4"/>
<line y1="-0.5" x2="50.0539" y2="-0.5" transform="matrix(0.714881 0.699246 -0.714881 0.699246 251.479 1)" stroke="#000D50" stroke-opacity="0.4"/>
<line y1="-0.5" x2="50.0539" y2="-0.5" transform="matrix(-0.714881 0.699246 0.714881 0.699246 287.261 1)" stroke="#000D50" stroke-opacity="0.4"/>
<line y1="-0.5" x2="50.0539" y2="-0.5" transform="matrix(0.714881 0.699246 -0.714881 0.699246 287.261 1)" stroke="#000D50" stroke-opacity="0.4"/>
<line y1="-0.5" x2="50.0539" y2="-0.5" transform="matrix(-0.714881 0.699246 0.714881 0.699246 323.043 1)" stroke="#000D50" stroke-opacity="0.4"/>
<line y1="-0.5" x2="50.0539" y2="-0.5" transform="matrix(0.714881 0.699246 -0.714881 0.699246 323.043 1)" stroke="#000D50" stroke-opacity="0.4"/>
<line y1="-0.5" x2="50.0539" y2="-0.5" transform="matrix(-0.714881 0.699246 0.714881 0.699246 358.826 1)" stroke="#000D50" stroke-opacity="0.4"/>
<line y1="-0.5" x2="50.0539" y2="-0.5" transform="matrix(0.714881 0.699246 -0.714881 0.699246 358.826 1)" stroke="#000D50" stroke-opacity="0.4"/>
<line y1="-0.5" x2="50.0539" y2="-0.5" transform="matrix(-0.714881 0.699246 0.714881 0.699246 394.609 1)" stroke="#000D50" stroke-opacity="0.4"/>
<line y1="-0.5" x2="50.0539" y2="-0.5" transform="matrix(0.714881 0.699246 -0.714881 0.699246 394.608 1)" stroke="#000D50" stroke-opacity="0.4"/>
<line y1="-0.5" x2="50.0539" y2="-0.5" transform="matrix(-0.714881 0.699246 0.714881 0.699246 430.391 1)" stroke="#000D50" stroke-opacity="0.4"/>
<line y1="-0.5" x2="50.0539" y2="-0.5" transform="matrix(0.714881 0.699246 -0.714881 0.699246 430.392 1)" stroke="#000D50" stroke-opacity="0.4"/>
<line y1="-0.5" x2="50.0539" y2="-0.5" transform="matrix(-0.714881 0.699246 0.714881 0.699246 466.174 1)" stroke="#000D50" stroke-opacity="0.4"/>
<line y1="-0.5" x2="50.0539" y2="-0.5" transform="matrix(0.714881 0.699246 -0.714881 0.699246 466.174 1)" stroke="#000D50" stroke-opacity="0.4"/>
<line y1="-0.5" x2="50.0539" y2="-0.5" transform="matrix(-0.714881 0.699246 0.714881 0.699246 501.957 1)" stroke="#000D50" stroke-opacity="0.4"/>
<line y1="-0.5" x2="50.0539" y2="-0.5" transform="matrix(0.714881 0.699246 -0.714881 0.699246 501.957 1)" stroke="#000D50" stroke-opacity="0.4"/>
<line y1="-0.5" x2="50.0539" y2="-0.5" transform="matrix(-0.714881 0.699246 0.714881 0.699246 537.739 1)" stroke="#000D50" stroke-opacity="0.4"/>
<line y1="-0.5" x2="50.0539" y2="-0.5" transform="matrix(0.714881 0.699246 -0.714881 0.699246 537.739 1)" stroke="#000D50" stroke-opacity="0.4"/>
<line y1="-0.5" x2="50.0539" y2="-0.5" transform="matrix(-0.714881 0.699246 0.714881 0.699246 573.522 1)" stroke="#000D50" stroke-opacity="0.4"/>
<line y1="-0.5" x2="50.0539" y2="-0.5" transform="matrix(0.714881 0.699246 -0.714881 0.699246 573.521 1)" stroke="#000D50" stroke-opacity="0.4"/>
<line y1="-0.5" x2="50.0539" y2="-0.5" transform="matrix(-0.714881 0.699246 0.714881 0.699246 609.304 1)" stroke="#000D50" stroke-opacity="0.4"/>
<line y1="-0.5" x2="50.0539" y2="-0.5" transform="matrix(0.714881 0.699246 -0.714881 0.699246 609.304 1)" stroke="#000D50" stroke-opacity="0.4"/>
<line y1="-0.5" x2="50.0539" y2="-0.5" transform="matrix(-0.714881 0.699246 0.714881 0.699246 645.087 1)" stroke="#000D50" stroke-opacity="0.4"/>
<line y1="-0.5" x2="50.0539" y2="-0.5" transform="matrix(0.714881 0.699246 -0.714881 0.699246 645.087 1)" stroke="#000D50" stroke-opacity="0.4"/>
<line y1="-0.5" x2="50.0539" y2="-0.5" transform="matrix(-0.714881 0.699246 0.714881 0.699246 680.87 1)" stroke="#000D50" stroke-opacity="0.4"/>
<line y1="-0.5" x2="50.0539" y2="-0.5" transform="matrix(0.714881 0.699246 -0.714881 0.699246 680.87 1)" stroke="#000D50" stroke-opacity="0.4"/>
<line y1="-0.5" x2="50.0539" y2="-0.5" transform="matrix(-0.714881 0.699246 0.714881 0.699246 716.652 1)" stroke="#000D50" stroke-opacity="0.4"/>
<line y1="-0.5" x2="50.0539" y2="-0.5" transform="matrix(0.714881 0.699246 -0.714881 0.699246 716.652 1)" stroke="#000D50" stroke-opacity="0.4"/>
<line y1="-0.5" x2="50.0539" y2="-0.5" transform="matrix(-0.714881 0.699246 0.714881 0.699246 752.435 1)" stroke="#000D50" stroke-opacity="0.4"/>
<line y1="-0.5" x2="50.0539" y2="-0.5" transform="matrix(0.714881 0.699246 -0.714881 0.699246 752.435 1)" stroke="#000D50" stroke-opacity="0.4"/>
<line y1="-0.5" x2="50.0539" y2="-0.5" transform="matrix(-0.714881 0.699246 0.714881 0.699246 788.217 1)" stroke="#000D50" stroke-opacity="0.4"/>
<circle cx="18.5" cy="17.5" r="2.5" fill="#959AB5"/>
<circle cx="54.5" cy="17.5" r="2.5" fill="#959AB5"/>
<circle cx="90.5" cy="17.5" r="2.5" fill="#959AB5"/>
<circle cx="126.5" cy="17.5" r="2.5" fill="#959AB5"/>
<circle cx="162.5" cy="17.5" r="2.5" fill="#959AB5"/>
<circle cx="198.5" cy="17.5" r="2.5" fill="#959AB5"/>
<circle cx="233.5" cy="17.5" r="2.5" fill="#959AB5"/>
<circle cx="269.5" cy="17.5" r="2.5" fill="#959AB5"/>
<circle cx="304.5" cy="17.5" r="2.5" fill="#959AB5"/>
<circle cx="340.5" cy="17.5" r="2.5" fill="#959AB5"/>
<circle cx="377.5" cy="17.5" r="2.5" fill="#959AB5"/>
<circle cx="413.5" cy="17.5" r="2.5" fill="#959AB5"/>
<circle cx="448.5" cy="17.5" r="2.5" fill="#959AB5"/>
<circle cx="483.5" cy="17.5" r="2.5" fill="#959AB5"/>
<circle cx="519.5" cy="17.5" r="2.5" fill="#959AB5"/>
<circle cx="556.5" cy="17.5" r="2.5" fill="#959AB5"/>
<circle cx="591.5" cy="17.5" r="2.5" fill="#959AB5"/>
<circle cx="626.5" cy="17.5" r="2.5" fill="#959AB5"/>
<circle cx="663.5" cy="17.5" r="2.5" fill="#959AB5"/>
<circle cx="698.5" cy="17.5" r="2.5" fill="#959AB5"/>
<circle cx="734.5" cy="17.5" r="2.5" fill="#959AB5"/>
<circle cx="770.5" cy="17.5" r="2.5" fill="#959AB5"/>
<line x1="1" y1="0.5" x2="789" y2="0.5" stroke="#000D50" stroke-opacity="0.4"/>
</svg>
