<svg width="292" height="290" viewBox="0 0 292 290" fill="none" xmlns="http://www.w3.org/2000/svg">
<path d="M290.91 147.754C291.704 143.442 288.8 139.43 286.276 135.846C282.97 131.154 280.003 126.058 278.918 120.423C278.128 116.321 278.368 112.1 278.531 107.926C278.92 97.978 278.866 88.0137 278.366 78.071C278.326 77.2899 278.262 76.4475 277.754 75.8536C276.764 74.6962 274.935 75.2074 273.429 75.4234C271.086 75.7581 268.623 75.0472 266.798 73.5407C266.642 73.6037 266.496 73.6901 266.336 73.7477C263.47 74.7826 260.047 74.7736 257.597 72.9629C255.803 71.6382 254.479 69.3793 252.264 69.1147C250.898 68.9509 249.568 69.6277 248.194 69.6727C245.423 69.7645 242.666 67.3238 240.135 68.4559C238.692 69.1021 237.83 70.776 236.3 71.1774C235.399 71.415 234.435 71.1522 233.515 71.2998C231.568 71.6111 230.388 73.5695 228.749 74.6656C225.517 76.8291 221.167 75.3406 217.703 73.5749C214.238 71.8091 210.355 69.7519 206.668 70.9884C205.216 71.4762 203.661 72.4589 202.285 71.7858C200.952 71.1324 200.653 69.2155 199.242 68.8807C198.104 68.6107 196.954 69.7537 195.971 70.0651C193.411 70.8786 192.227 71.6148 190.361 68.8699C189.112 67.0358 188.269 64.687 186.244 63.7798C183.833 62.6999 181.145 64.2352 178.587 64.8903C174.686 65.8875 170.29 64.6329 167.501 61.7261C166.161 60.3293 164.878 57.7537 162.917 57.1328C161.26 56.6072 160.594 57.7753 159.255 57.6799C155.234 57.3901 152.7 53.3853 147.864 54.5211C147.472 54.6129 147.047 54.7263 146.684 54.5535C146.133 54.2925 146.05 53.5599 146.043 52.9498C145.824 36.0577 145.604 19.1638 145.385 2.27167C124.675 3.15363 103.915 2.79544 83.2446 1.23132C82.595 17.9002 82.7192 44.015 82.7012 46.7383C82.5231 72.0575 82.9891 97.1608 81.134 122.359C77.109 122.917 73.5986 122.262 69.5413 122.034C57.5149 121.361 45.4903 120.686 33.4639 120.011C27.4507 119.674 21.4375 119.337 15.4261 118.999C10.4979 118.722 5.73332 117.579 0.855469 118.326C1.47082 120.873 3.50582 121.864 4.90566 123.848C5.15217 124.199 5.34827 124.597 5.55519 124.984C6.60597 125.133 7.48764 125.484 8.43586 126.625C9.94906 128.447 9.40569 131.741 12.1604 132.592C13.0276 132.86 13.974 132.695 14.8557 132.905C17.8551 133.621 18.2006 137.621 19.0247 140.594C19.9639 143.985 22.4001 146.932 25.5506 148.494C28.64 150.026 32.8089 150.724 33.9191 153.989C34.2789 155.046 34.2178 156.198 34.4265 157.294C35.2182 161.452 39.5994 164.025 40.9957 168.021C41.9169 170.658 41.4185 173.551 41.5876 176.339C41.9637 182.543 46.4061 182.044 49.7186 185.673C51.8669 188.025 50.7892 192.354 53.2722 194.348C54.3158 195.185 55.7228 195.356 57.0417 195.592C62.4881 196.562 67.6304 199.188 71.6104 203.033C72.5946 203.983 73.748 205.094 75.0992 204.887C76.607 204.656 77.3339 202.981 78.2318 201.75C79.1314 200.517 81.3031 199.748 81.9689 201.12C84.9611 198.62 83.0646 192.905 86.1576 190.531C87.9029 189.19 90.5065 189.591 92.3381 188.371C93.6192 187.516 94.339 185.982 95.6488 185.171C97.0937 184.278 98.9307 184.447 100.618 184.647C103.215 184.955 105.809 185.264 108.406 185.572C110.835 185.86 113.476 186.252 115.153 188.034C116.67 189.649 117.019 192.019 118.107 193.949C120.385 197.991 125.474 199.52 128.556 202.986C132.363 207.268 132.538 213.777 135.886 218.428C137.455 220.607 139.647 222.267 141.313 224.373C144.758 228.728 145.946 234.936 150.527 238.073C152.303 239.29 154.502 239.96 155.894 241.601C158.231 244.359 157.335 248.473 157.634 252.075C157.936 255.729 159.667 259.244 162.379 261.712C163.788 262.993 165.576 264.219 165.803 266.111C165.925 267.128 165.547 268.135 165.492 269.16C165.308 272.518 168.459 275.042 171.431 276.613C177.068 279.594 183.238 281.403 189.357 283.192C194.363 284.657 199.37 286.12 204.376 287.585C207.64 288.539 212.912 290.742 213.984 287.515C214.313 286.525 213.504 285.499 212.593 284.992C211.683 284.482 210.616 284.246 209.804 283.589C208.073 282.186 208.732 276.86 208.019 274.732C206.544 270.324 205.069 265.918 203.593 261.51C203.347 260.772 203.096 259.989 203.266 259.23C203.577 257.835 205.11 257.122 205.965 255.977C207.255 254.249 206.607 251.425 204.694 250.432C203.368 249.742 201.247 249.256 201.547 247.795C201.715 246.985 202.616 246.598 203.39 246.306C205.11 245.656 206.866 244.76 207.794 243.173C208.723 241.585 208.403 239.162 206.733 238.394C206.287 238.189 205.767 238.104 205.409 237.768C204.228 236.662 206.109 234.853 207.722 234.74C209.335 234.627 211.406 234.78 212.08 233.309C212.528 232.332 212.008 231.192 211.389 230.314C210.77 229.436 210.009 228.561 209.93 227.49C209.851 226.419 210.958 225.238 211.909 225.735C212.715 226.156 212.766 227.387 213.536 227.872C214.367 228.394 215.42 227.746 216.179 227.123C217.527 226.021 218.873 224.918 220.22 223.816C220.717 223.411 221.239 222.963 221.402 222.344C221.692 221.237 220.735 220.244 220.24 219.21C219.743 218.179 220.346 216.413 221.417 216.82C221.899 217.004 222.115 217.547 222.448 217.942C223.887 219.644 226.606 218.107 228.209 216.556C228.643 216.136 229.116 215.569 228.916 215.001C228.779 214.61 228.376 214.394 228.087 214.101C226.977 212.977 227.826 210.897 229.262 210.242C230.697 209.586 232.626 209.887 234.185 210.13C237.6 210.663 241.148 210.728 244.457 209.734C247.765 208.739 250.824 206.588 252.397 203.51C253.538 201.278 253.885 198.638 255.423 196.658C256.492 195.284 258.083 194.309 258.84 192.741C259.952 190.443 258.932 187.653 259.558 185.178C260.168 182.768 262.216 181.038 264.15 179.478C264.4 179.276 264.681 179.064 265.001 179.083C265.708 179.127 265.83 180.144 265.596 180.811C265.361 181.481 265.004 182.28 265.451 182.831C266.07 183.594 267.522 182.96 268.173 183.695C269.118 184.759 267.48 186.573 268.643 187.502C269.812 188.438 272.058 187.158 273.062 186.569C277.873 183.751 282.945 180.79 288.217 179.123C288.363 173.651 289.469 167.917 288.487 162.537C288.109 160.465 287.413 158.392 287.67 156.302C288.041 153.269 290.354 150.767 290.91 147.754Z" fill="white" stroke="#142CA5" stroke-miterlimit="10" stroke-linecap="round" stroke-linejoin="round"/>
<circle cx="124.143" cy="73.2691" r="12.7862" fill="#44CC3B" fill-opacity="0.1"/>
<circle cx="124.143" cy="73.2691" r="6.61356" fill="#44CC3B"/>
<circle cx="226.433" cy="125.07" r="9.5077" fill="#0821A1" fill-opacity="0.1"/>
<circle cx="226.432" cy="125.07" r="4.91778" fill="#0020C3"/>
<circle cx="188.401" cy="184.739" r="9.5077" fill="#0821A1" fill-opacity="0.1"/>
<circle cx="188.401" cy="184.739" r="4.91778" fill="#0020C3"/>
<circle cx="107.095" cy="135.561" r="9.5077" fill="#0821A1" fill-opacity="0.1"/>
<circle cx="107.095" cy="135.561" r="4.91778" fill="#0020C3"/>
</svg>
