<svg width="445" height="441" viewBox="0 0 445 441" fill="none" xmlns="http://www.w3.org/2000/svg">
<path d="M443.835 224.096C445.045 217.519 440.617 211.4 436.767 205.935C431.726 198.779 427.201 191.007 425.546 182.413C424.342 176.157 424.707 169.72 424.956 163.354C425.549 148.183 425.467 132.987 424.704 117.823C424.643 116.632 424.545 115.347 423.771 114.441C422.262 112.676 419.471 113.456 417.174 113.785C413.602 114.296 409.845 113.212 407.062 110.914C406.824 111.01 406.601 111.142 406.357 111.23C401.986 112.808 396.767 112.794 393.029 110.033C390.294 108.012 388.274 104.568 384.896 104.164C382.813 103.914 380.785 104.946 378.689 105.015C374.463 105.155 370.259 101.433 366.398 103.159C364.198 104.145 362.883 106.698 360.551 107.31C359.176 107.672 357.705 107.271 356.303 107.496C353.334 107.971 351.534 110.958 349.034 112.63C344.106 115.929 337.471 113.659 332.188 110.966C326.903 108.273 320.982 105.136 315.359 107.022C313.145 107.765 310.774 109.264 308.675 108.238C306.641 107.241 306.186 104.318 304.034 103.807C302.297 103.395 300.544 105.139 299.046 105.613C295.141 106.854 293.335 107.977 290.49 103.791C288.585 100.994 287.298 97.4113 284.211 96.0279C280.534 94.3809 276.435 96.7224 272.533 97.7215C266.584 99.2423 259.88 97.3289 255.627 92.8958C253.582 90.7656 251.626 86.8376 248.635 85.8906C246.108 85.0891 245.092 86.8705 243.051 86.7251C236.918 86.2831 233.054 80.1755 225.678 81.9076C225.08 82.0476 224.432 82.2205 223.878 81.957C223.038 81.559 222.912 80.4418 222.901 79.5112C222.566 53.7494 222.232 27.9849 221.897 2.22309C190.313 3.56814 158.652 3.02188 127.128 0.636475C126.138 26.0579 126.327 65.885 126.3 70.0382C126.028 108.652 126.739 146.937 123.91 185.367C117.771 186.217 112.418 185.218 106.23 184.87C87.8886 183.843 69.5501 182.814 51.2089 181.784C42.0383 181.271 32.8677 180.758 23.6999 180.242C16.1839 179.819 8.91763 178.076 1.47852 179.215C2.41698 183.099 5.52052 184.612 7.65538 187.637C8.03132 188.172 8.3304 188.779 8.64596 189.369C10.2485 189.597 11.5931 190.132 13.0392 191.872C15.347 194.65 14.5183 199.673 18.7194 200.972C20.042 201.381 21.4854 201.128 22.83 201.449C27.4043 202.542 27.9312 208.641 29.188 213.176C30.6204 218.348 34.3358 222.841 39.1406 225.224C43.8521 227.56 50.2101 228.625 51.9031 233.604C52.452 235.216 52.3587 236.972 52.677 238.644C53.8844 244.985 60.5661 248.91 62.6955 255.004C64.1005 259.026 63.3403 263.437 63.5983 267.689C64.1718 277.151 70.9468 276.391 75.9986 281.924C79.275 285.512 77.6314 292.114 81.4181 295.155C83.0097 296.432 85.1555 296.693 87.1669 297.052C95.4732 298.532 103.316 302.537 109.385 308.4C110.886 309.849 112.645 311.543 114.706 311.227C117.006 310.876 118.114 308.32 119.484 306.443C120.856 304.562 124.168 303.39 125.183 305.482C129.746 301.669 126.854 292.954 131.571 289.333C134.233 287.288 138.203 287.9 140.997 286.039C142.951 284.735 144.048 282.397 146.046 281.159C148.249 279.797 151.051 280.055 153.625 280.36C157.585 280.829 161.542 281.301 165.501 281.771C169.206 282.21 173.234 282.808 175.791 285.526C178.105 287.988 178.637 291.603 180.297 294.546C183.771 300.711 191.531 303.042 196.232 308.329C202.038 314.859 202.304 324.785 207.411 331.878C209.804 335.202 213.146 337.733 215.687 340.945C220.942 347.588 222.753 357.055 229.739 361.84C232.448 363.695 235.801 364.716 237.925 367.22C241.489 371.425 240.123 377.7 240.578 383.193C241.039 388.765 243.679 394.126 247.814 397.89C249.963 399.844 252.691 401.713 253.036 404.598C253.223 406.149 252.647 407.686 252.562 409.248C252.282 414.371 257.086 418.219 261.62 420.615C270.217 425.161 279.626 427.92 288.959 430.648C296.593 432.883 304.229 435.115 311.863 437.349C316.841 438.804 324.881 442.164 326.516 437.242C327.019 435.732 325.784 434.168 324.395 433.393C323.007 432.617 321.379 432.257 320.142 431.255C317.502 429.114 318.506 420.992 317.42 417.747C315.17 411.024 312.92 404.305 310.669 397.582C310.294 396.457 309.912 395.263 310.17 394.104C310.645 391.977 312.983 390.89 314.286 389.144C316.254 386.509 315.266 382.202 312.349 380.687C310.326 379.635 307.091 378.894 307.55 376.665C307.805 375.43 309.179 374.84 310.359 374.395C312.983 373.404 315.661 372.037 317.077 369.616C318.493 367.195 318.004 363.5 315.458 362.328C314.777 362.015 313.984 361.886 313.438 361.373C311.638 359.688 314.506 356.929 316.967 356.756C319.426 356.583 322.584 356.816 323.613 354.574C324.296 353.083 323.503 351.345 322.559 350.006C321.616 348.666 320.455 347.332 320.334 345.699C320.213 344.066 321.901 342.265 323.353 343.023C324.582 343.665 324.659 345.543 325.833 346.281C327.101 347.077 328.706 346.089 329.864 345.139C331.919 343.459 333.972 341.776 336.027 340.096C336.785 339.479 337.58 338.795 337.83 337.851C338.272 336.163 336.812 334.648 336.057 333.072C335.3 331.499 336.219 328.806 337.852 329.427C338.587 329.707 338.917 330.536 339.424 331.137C341.62 333.734 345.766 331.389 348.211 329.023C348.872 328.384 349.594 327.519 349.289 326.651C349.081 326.056 348.466 325.726 348.024 325.279C346.331 323.566 347.626 320.393 349.816 319.394C352.006 318.395 354.947 318.853 357.324 319.224C362.532 320.036 367.943 320.135 372.99 318.62C378.036 317.102 382.701 313.821 385.099 309.127C386.839 305.724 387.368 301.697 389.715 298.677C391.344 296.583 393.77 295.095 394.926 292.704C396.621 289.199 395.065 284.944 396.02 281.17C396.951 277.494 400.073 274.856 403.023 272.476C403.405 272.169 403.833 271.845 404.321 271.875C405.399 271.941 405.586 273.492 405.229 274.51C404.87 275.531 404.327 276.75 405.007 277.59C405.951 278.754 408.165 277.788 409.159 278.908C410.599 280.53 408.102 283.297 409.875 284.713C411.659 286.141 415.083 284.189 416.614 283.292C423.952 278.993 431.688 274.477 439.728 271.936C439.95 263.591 441.637 254.845 440.139 246.64C439.563 243.481 438.501 240.319 438.893 237.132C439.459 232.506 442.987 228.691 443.835 224.096Z" fill="white" stroke="#142CA5" stroke-miterlimit="10" stroke-linecap="round" stroke-linejoin="round"/>
<circle cx="189.5" cy="110.5" r="19.5" fill="#44CC3B" fill-opacity="0.1"/>
<circle cx="189.5" cy="110.5" r="10.0862" fill="#44CC3B"/>
<circle cx="345.5" cy="189.5" r="14.5" fill="#0821A1" fill-opacity="0.1"/>
<circle cx="345.5" cy="189.5" r="7.5" fill="#0020C3"/>
<circle cx="287.5" cy="280.5" r="14.5" fill="#0821A1" fill-opacity="0.1"/>
<circle cx="287.5" cy="280.5" r="7.5" fill="#0020C3"/>
<circle cx="163.5" cy="205.5" r="14.5" fill="#0821A1" fill-opacity="0.1"/>
<circle cx="163.5" cy="205.5" r="7.5" fill="#0020C3"/>
</svg>
