<svg width="24" height="24" viewBox="0 0 24 24" fill="none" xmlns="http://www.w3.org/2000/svg">
<path d="M12 9.25928C11.59 9.25928 11.25 8.91928 11.25 8.50928V3.00928C11.25 2.59928 11.59 2.25928 12 2.25928C12.41 2.25928 12.75 2.59928 12.75 3.00928V8.50928C12.75 8.91928 12.41 9.25928 12 9.25928Z" fill="#0020C3"/>
<path d="M12 21.7593C11.59 21.7593 11.25 21.4193 11.25 21.0093V15.5093C11.25 15.0993 11.59 14.7593 12 14.7593C12.41 14.7593 12.75 15.0993 12.75 15.5093V21.0093C12.75 21.4193 12.41 21.7593 12 21.7593Z" fill="#0020C3"/>
<path d="M14 3.75928H10C9.59 3.75928 9.25 3.41928 9.25 3.00928C9.25 2.59928 9.59 2.25928 10 2.25928H14C14.41 2.25928 14.75 2.59928 14.75 3.00928C14.75 3.41928 14.41 3.75928 14 3.75928Z" fill="#0020C3"/>
<path d="M14 21.7593H10C9.59 21.7593 9.25 21.4193 9.25 21.0093C9.25 20.5993 9.59 20.2593 10 20.2593H14C14.41 20.2593 14.75 20.5993 14.75 21.0093C14.75 21.4193 14.41 21.7593 14 21.7593Z" fill="#0020C3"/>
<path d="M8.97013 11.0092C8.84013 11.0092 8.71013 10.9792 8.60013 10.9092L3.84013 8.15919C3.48013 7.94919 3.36013 7.48921 3.57013 7.13921C3.78013 6.77921 4.24013 6.6592 4.59013 6.8692L9.35013 9.6192C9.71013 9.8292 9.83013 10.2892 9.62013 10.6392C9.48013 10.8792 9.23013 11.0092 8.97013 11.0092Z" fill="#0020C3"/>
<path d="M19.7904 17.2592C19.6604 17.2592 19.5304 17.2292 19.4204 17.1592L14.6604 14.4092C14.3004 14.1992 14.1804 13.7392 14.3904 13.3892C14.6004 13.0292 15.0604 12.9092 15.4104 13.1192L20.1704 15.8692C20.5304 16.0792 20.6504 16.5392 20.4404 16.8892C20.3004 17.1292 20.0504 17.2592 19.7904 17.2592Z" fill="#0020C3"/>
<path d="M3.21013 9.98922C3.08013 9.98922 2.95013 9.95923 2.84013 9.88923C2.48013 9.67922 2.36013 9.21922 2.57013 8.86922L4.57013 5.40921C4.78013 5.04921 5.24013 4.92922 5.59013 5.13922C5.95013 5.34922 6.07013 5.80921 5.86013 6.15921L3.86013 9.61922C3.72013 9.85922 3.46013 9.98922 3.21013 9.98922Z" fill="#0020C3"/>
<path d="M18.7902 18.9892C18.6602 18.9892 18.5302 18.9592 18.4202 18.8892C18.0602 18.6792 17.9402 18.2192 18.1502 17.8692L20.1502 14.4092C20.3602 14.0492 20.8202 13.9292 21.1702 14.1392C21.5302 14.3492 21.6502 14.8092 21.4402 15.1592L19.4402 18.6192C19.3102 18.8592 19.0502 18.9892 18.7902 18.9892Z" fill="#0020C3"/>
<path d="M12 16.2593C10.49 16.2593 9.08 15.4493 8.32 14.1393C7.94 13.4793 7.75 12.7693 7.75 12.0093C7.75 11.2493 7.94 10.5393 8.32 9.8893C9.08 8.5793 10.49 7.76929 12 7.76929C13.51 7.76929 14.92 8.5793 15.68 9.8893C16.06 10.5493 16.25 11.2593 16.25 12.0193C16.25 12.7793 16.06 13.4893 15.68 14.1393C14.92 15.4493 13.51 16.2593 12 16.2593ZM12 9.25929C11.02 9.25929 10.11 9.7893 9.62 10.6393C9.38 11.0593 9.25 11.5293 9.25 12.0093C9.25 12.4893 9.37 12.9593 9.62 13.3893C10.11 14.2393 11.02 14.7693 12 14.7693C12.98 14.7693 13.89 14.2393 14.38 13.3893C14.62 12.9693 14.75 12.4993 14.75 12.0193C14.75 11.5393 14.63 11.0693 14.38 10.6393C13.89 9.7893 12.98 9.25929 12 9.25929Z" fill="#0020C3"/>
<path d="M15.0304 11.0094C14.7704 11.0094 14.5204 10.8794 14.3804 10.6294C14.1704 10.2694 14.3004 9.80944 14.6504 9.60944L19.4104 6.85944C19.7704 6.64944 20.2304 6.77943 20.4304 7.12943C20.6404 7.48943 20.5104 7.94944 20.1604 8.14944L15.4004 10.8994C15.2904 10.9794 15.1604 11.0094 15.0304 11.0094Z" fill="#0020C3"/>
<path d="M4.21012 17.2594C3.95012 17.2594 3.70012 17.1294 3.56012 16.8794C3.35012 16.5194 3.48012 16.0594 3.83012 15.8594L8.59012 13.1094C8.95012 12.8994 9.41012 13.0294 9.61012 13.3794C9.82012 13.7394 9.69012 14.1994 9.34012 14.3994L4.58012 17.1494C4.47012 17.2294 4.34012 17.2594 4.21012 17.2594Z" fill="#0020C3"/>
<path d="M20.7902 9.98921C20.5302 9.98921 20.2802 9.85922 20.1402 9.60922L18.1402 6.14922C17.9302 5.78922 18.0602 5.32921 18.4102 5.12921C18.7702 4.91921 19.2302 5.04922 19.4302 5.39922L21.4302 8.85923C21.6402 9.21922 21.5102 9.67921 21.1602 9.87921C21.0502 9.95921 20.9202 9.98921 20.7902 9.98921Z" fill="#0020C3"/>
<path d="M5.21012 18.9892C4.95012 18.9892 4.70012 18.8592 4.56012 18.6092L2.56012 15.1492C2.35012 14.7892 2.48012 14.3292 2.83012 14.1292C3.19012 13.9192 3.65012 14.0492 3.85012 14.3992L5.85012 17.8592C6.06012 18.2192 5.93012 18.6792 5.58012 18.8792C5.46012 18.9592 5.33012 18.9892 5.21012 18.9892Z" fill="#0020C3"/>
</svg>
